# xmcd CD database file
#
# Track frame offsets:
#	150
#	14569
#	31260
#	50369
#	66260
#	78626
#	96157
#	108971
#	124614
#	141012
#	156711
#
# Disc length: 2426 seconds
#
# Revision: 1
# Processed by: cddbd v1.4PL0 Copyright (c) Steve Scherf et al.
# Submitted via: CDex 1.50
#
DISCID=9409780b
DTITLE=Cam - Purr
DYEAR=1997
DGENRE=New Age
TTITLE0=Curl
TTITLE1=Haven's Lost
TTITLE2=Lying Around
TTITLE3=Stampede
TTITLE4=Soothing Silence
TTITLE5=Possible Honey
TTITLE6=Tiny
TTITLE7=Opposit Side
TTITLE8=Scream
TTITLE9=Song For E
TTITLE10=Radiance
EXTD=YEAR: 1997
EXTT0=
EXTT1=
EXTT2=
EXTT3=
EXTT4=
EXTT5=
EXTT6=
EXTT7=
EXTT8=
EXTT9=
EXTT10=
PLAYORDER=
